<?xml version="1.0" encoding="UTF-8" standalone="no"?>
<svg
   xmlns:dc="http://purl.org/dc/elements/1.1/"
   xmlns:cc="http://creativecommons.org/ns#"
   xmlns:rdf="http://www.w3.org/1999/02/22-rdf-syntax-ns#"
   xmlns:svg="http://www.w3.org/2000/svg"
   xmlns="http://www.w3.org/2000/svg"
   xmlns:sodipodi="http://sodipodi.sourceforge.net/DTD/sodipodi-0.dtd"
   xmlns:inkscape="http://www.inkscape.org/namespaces/inkscape"
   width="210mm"
   height="297mm"
   viewBox="0 0 210 297"
   version="1.1"
   id="svg8"
   inkscape:version="1.0.2 (e86c870879, 2021-01-15)"
   sodipodi:docname="dragon_types.svg">
  <defs
     id="defs2" />
  <sodipodi:namedview
     id="base"
     pagecolor="#ffffff"
     bordercolor="#666666"
     borderopacity="1.0"
     inkscape:pageopacity="0.0"
     inkscape:pageshadow="2"
     inkscape:zoom="0.3431542"
     inkscape:cx="400"
     inkscape:cy="560"
     inkscape:document-units="mm"
     inkscape:current-layer="layer1"
     inkscape:document-rotation="0"
     showgrid="false"
     showborder="false"
     inkscape:lockguides="true"
     inkscape:object-nodes="false"
     inkscape:window-width="1920"
     inkscape:window-height="983"
     inkscape:window-x="0"
     inkscape:window-y="0"
     inkscape:window-maximized="1">
    <inkscape:grid
       type="xygrid"
       id="grid833" />
  </sodipodi:namedview>
  <metadata
     id="metadata5">
    <rdf:RDF>
      <cc:Work
         rdf:about="">
        <dc:format>image/svg+xml</dc:format>
        <dc:type
           rdf:resource="http://purl.org/dc/dcmitype/StillImage" />
        <dc:title />
      </cc:Work>
    </rdf:RDF>
  </metadata>
  <g
     inkscape:label="Layer 1"
     inkscape:groupmode="layer"
     id="layer1">
    <g
       id="g913"
       style="stroke:#006fc9;stroke-opacity:1">
      <rect
         style="fill:#000000;fill-rule:evenodd;stroke:#006fc9;stroke-width:10.9224;stroke-linecap:round;stroke-miterlimit:4;stroke-dasharray:none;stroke-opacity:1"
         id="rect835"
         width="719.66669"
         height="116.41666"
         x="-211.66667"
         y="-10.583333"
         ry="58.208328" />
      <circle
         style="fill:#000000;fill-rule:evenodd;stroke:#006fc9;stroke-width:10;stroke-linecap:round;stroke-miterlimit:4;stroke-dasharray:none;stroke-opacity:1"
         id="path841"
         cx="-238.9413"
         cy="48.518757"
         r="97.372009" />
    </g>
    <g
       id="g5772"
       transform="matrix(0.68074359,0,0,0.68074359,-325.25374,-37.676375)">
      <circle
         class="st0"
         cx="127.6"
         cy="127.6"
         r="121.6"
         id="circle5752" />
      <g
         id="g5758">
	<path
   class="st1"
   d="m 126.685,179.553 c 14.923,0.159 26.121,-6.269 32.82,-19.643 8.319,-16.609 1.766,-36.906 -14.503,-46.024 -0.381,-0.213 -0.751,-0.467 -1.159,-0.608 -1.476,-0.509 -1.939,-1.439 -1.704,-3.017 0.257,-1.718 0.252,-3.485 0.244,-5.229 -0.023,-4.759 -1.941,-8.807 -4.825,-12.469 -0.154,-0.195 -0.365,-0.346 -0.549,-0.517 -0.188,0.262 -0.028,0.496 0.086,0.711 2.378,4.497 2.613,9.355 2.469,14.292 -0.061,2.066 -0.694,3.935 -1.6,5.754 -1.207,2.426 -2.975,3.778 -5.803,4.266 -16.193,2.79 -32.127,6.764 -48.056,10.763 -11.096,2.786 -22.247,5.358 -33.373,8.024 -0.425,0.102 -0.849,0.223 -1.281,0.271 -0.228,0.025 -0.615,-0.024 -0.674,-0.156 -0.085,-0.187 0.017,-0.505 0.126,-0.724 0.192,-0.39 0.445,-0.751 0.68,-1.119 8.678,-13.554 16.458,-27.623 23.95,-41.855 0.923,-1.754 2.134,-3.086 3.756,-4.233 12.85,-9.081 25.546,-18.365 37.481,-28.65 9.836,-8.476 18.711,-17.85 26.683,-28.09 0.376,-0.483 0.749,-0.967 1.139,-1.438 0.103,-0.124 0.275,-0.295 0.395,-0.28 0.361,0.045 0.275,0.349 0.232,0.585 -0.125,0.687 -0.267,1.371 -0.398,2.057 -1.993,10.4 -5.924,20.076 -10.896,29.375 -1.864,3.486 -1.803,3.485 2.189,3.589 32.048,0.834 59.999,22.141 69.198,52.89 9.836,32.881 -3.971,67.726 -33.37,85.147 -4.45,2.637 -9.129,4.759 -14.01,6.469 -1.43,0.501 -2.641,0.385 -4.007,-0.22 -5.994,-2.657 -11.121,-6.574 -15.954,-10.897 -5.43,-4.856 -10.229,-10.28 -14.16,-16.44 -0.329,-0.515 -0.646,-1.038 -0.956,-1.565 -0.4,-0.68 -0.488,-1.092 0.594,-1.041 1.739,0.083 3.489,0.022 5.236,0.022 z M 102.002,94.17 c -0.146,-1.387 -0.283,-2.775 -0.443,-4.16 -0.04,-0.344 -0.147,-0.681 -0.23,-1.019 -0.161,-0.654 -0.544,-0.849 -1.14,-0.511 -0.378,0.215 -0.746,0.452 -1.102,0.702 -8.231,5.761 -15.007,12.984 -21.01,20.973 -0.921,1.225 -0.731,1.55 0.92,1.591 6.903,0.169 13.057,-1.863 18.308,-6.406 3.394,-2.937 4.871,-6.709 4.697,-11.17 z"
   id="path5754" />

	<path
   class="st1"
   d="m 123.195,211.207 c -6.948,-0.777 -13.843,-1.838 -20.563,-3.838 -10.778,-3.207 -19.883,-9.221 -28.17,-16.66 -11.739,-10.538 -19.128,-23.671 -23.343,-38.728 -0.468,-1.67 -0.451,-1.71 1.336,-1.881 11.228,-1.078 22.339,-2.822 33.26,-5.698 6.426,-1.693 12.706,-3.812 18.875,-6.272 0.811,-0.323 1.627,-0.634 2.45,-0.926 0.143,-0.051 0.358,-0.026 0.491,0.05 0.301,0.172 0.18,0.44 0.051,0.659 -0.309,0.527 -0.646,1.038 -0.96,1.561 -0.99,1.646 -2.004,3.279 -2.958,4.946 -4.851,8.47 -6.05,17.516 -4.459,27.08 2.197,13.214 8.391,24.119 18.523,32.824 2.583,2.22 5.202,4.399 7.789,6.614 0.208,0.178 0.681,0.237 0.499,0.665 -0.026,0.061 -0.486,-0.063 -0.746,-0.1 -0.692,-0.1 -1.384,-0.197 -2.075,-0.296 z"
   id="path5756" />

</g>
    </g>
  </g>
  <style
     type="text/css"
     id="style893">
	.st0{fill:#38BF4B;}
	.st1{fill:#FEFEFE;}
</style>
  <style
     type="text/css"
     id="style970">
	.st0{fill:#83C300;}
	.st1{fill:#FEFEFE;}
</style>
  <style
     type="text/css"
     id="style1065">
	.st0{fill:#5B5466;}
	.st1{fill-rule:evenodd;clip-rule:evenodd;fill:#FFFFFF;}
</style>
  <style
     type="text/css"
     id="style1155">
	.st0{fill:#006FC9;}
	.st1{fill:#FEFEFE;}
</style>
  <style
     type="text/css"
     id="style5750">
	.st0{fill:#006FC9;}
	.st1{fill:#FEFEFE;}
</style>
</svg>
