<?xml version="1.0" encoding="UTF-8" standalone="no"?>
<svg
   xmlns:dc="http://purl.org/dc/elements/1.1/"
   xmlns:cc="http://creativecommons.org/ns#"
   xmlns:rdf="http://www.w3.org/1999/02/22-rdf-syntax-ns#"
   xmlns:svg="http://www.w3.org/2000/svg"
   xmlns="http://www.w3.org/2000/svg"
   xmlns:sodipodi="http://sodipodi.sourceforge.net/DTD/sodipodi-0.dtd"
   xmlns:inkscape="http://www.inkscape.org/namespaces/inkscape"
   width="210mm"
   height="297mm"
   viewBox="0 0 210 297"
   version="1.1"
   id="svg8"
   inkscape:version="1.0.2 (e86c870879, 2021-01-15)"
   sodipodi:docname="fairy_types.svg">
  <defs
     id="defs2" />
  <sodipodi:namedview
     id="base"
     pagecolor="#ffffff"
     bordercolor="#666666"
     borderopacity="1.0"
     inkscape:pageopacity="0.0"
     inkscape:pageshadow="2"
     inkscape:zoom="0.3431542"
     inkscape:cx="400"
     inkscape:cy="560"
     inkscape:document-units="mm"
     inkscape:current-layer="layer1"
     inkscape:document-rotation="0"
     showgrid="false"
     showborder="false"
     inkscape:lockguides="true"
     inkscape:object-nodes="false"
     inkscape:window-width="1920"
     inkscape:window-height="983"
     inkscape:window-x="0"
     inkscape:window-y="0"
     inkscape:window-maximized="1">
    <inkscape:grid
       type="xygrid"
       id="grid833" />
  </sodipodi:namedview>
  <metadata
     id="metadata5">
    <rdf:RDF>
      <cc:Work
         rdf:about="">
        <dc:format>image/svg+xml</dc:format>
        <dc:type
           rdf:resource="http://purl.org/dc/dcmitype/StillImage" />
        <dc:title />
      </cc:Work>
    </rdf:RDF>
  </metadata>
  <g
     inkscape:label="Layer 1"
     inkscape:groupmode="layer"
     id="layer1">
    <g
       id="g913"
       style="stroke:#fb89eb;stroke-opacity:1">
      <rect
         style="fill:#000000;fill-rule:evenodd;stroke:#fb89eb;stroke-width:10.9224;stroke-linecap:round;stroke-miterlimit:4;stroke-dasharray:none;stroke-opacity:1"
         id="rect835"
         width="719.66669"
         height="116.41666"
         x="-211.66667"
         y="-10.583333"
         ry="58.208328" />
      <circle
         style="fill:#000000;fill-rule:evenodd;stroke:#fb89eb;stroke-width:10;stroke-linecap:round;stroke-miterlimit:4;stroke-dasharray:none;stroke-opacity:1"
         id="path841"
         cx="-238.9413"
         cy="48.518757"
         r="97.372009" />
    </g>
    <g
       id="g1379"
       transform="matrix(0.68339806,0,0,0.68339806,-325.57094,-38.257952)">
      <circle
         class="st0"
         cx="127.6"
         cy="127.6"
         r="121.6"
         id="circle1365" />
      <path
         class="st1"
         d="m 73.964,180.088 28.739,-8.333 24.822,45.386 c 0.033,0.059 0.117,0.059 0.149,0 l 24.822,-45.386 28.739,8.333 c 0.064,0.019 0.124,-0.041 0.105,-0.106 l -8.334,-28.17 44.134,-24.138 c 0.059,-0.032 0.059,-0.117 0,-0.149 l -44.498,-24.337 8.698,-29.4 c 0.019,-0.064 -0.041,-0.124 -0.105,-0.106 l -29.413,8.529 -24.148,-44.153 c -0.032,-0.059 -0.117,-0.059 -0.149,0 L 103.377,82.211 73.964,73.682 C 73.9,73.663 73.84,73.723 73.859,73.788 l 8.698,29.4 -44.498,24.337 c -0.059,0.032 -0.059,0.117 0,0.149 l 44.134,24.138 -8.334,28.17 c -0.019,0.065 0.041,0.125 0.105,0.106 z m 22.301,-52.178 20.36,11.135 11.135,20.36 c 0.032,0.059 0.117,0.059 0.149,0 l 11.135,-20.36 20.36,-11.135 c 0.059,-0.032 0.059,-0.117 0,-0.149 l -20.36,-11.135 -11.135,-20.36 c -0.032,-0.059 -0.117,-0.059 -0.149,0 l -11.135,20.36 -20.36,11.135 c -0.058,0.032 -0.058,0.116 0,0.149 z"
         id="path1367" />
    </g>
  </g>
  <style
     type="text/css"
     id="style893">
	.st0{fill:#38BF4B;}
	.st1{fill:#FEFEFE;}
</style>
  <style
     type="text/css"
     id="style970">
	.st0{fill:#83C300;}
	.st1{fill:#FEFEFE;}
</style>
  <style
     type="text/css"
     id="style1065">
	.st0{fill:#5B5466;}
	.st1{fill-rule:evenodd;clip-rule:evenodd;fill:#FFFFFF;}
</style>
  <style
     type="text/css"
     id="style1155">
	.st0{fill:#006FC9;}
	.st1{fill:#FEFEFE;}
</style>
  <style
     type="text/css"
     id="style1277">
	.st0{fill:#FBD100;}
	.st1{fill-rule:evenodd;clip-rule:evenodd;fill:#FFFFFF;}
</style>
  <style
     type="text/css"
     id="style1363">
	.st0{fill:#FB89EB;}
	.st1{fill-rule:evenodd;clip-rule:evenodd;fill:#FFFFFF;}
</style>
</svg>
