<?xml version="1.0" encoding="UTF-8" standalone="no"?>
<svg
   xmlns:dc="http://purl.org/dc/elements/1.1/"
   xmlns:cc="http://creativecommons.org/ns#"
   xmlns:rdf="http://www.w3.org/1999/02/22-rdf-syntax-ns#"
   xmlns:svg="http://www.w3.org/2000/svg"
   xmlns="http://www.w3.org/2000/svg"
   xmlns:sodipodi="http://sodipodi.sourceforge.net/DTD/sodipodi-0.dtd"
   xmlns:inkscape="http://www.inkscape.org/namespaces/inkscape"
   width="210mm"
   height="297mm"
   viewBox="0 0 210 297"
   version="1.1"
   id="svg8"
   inkscape:version="1.0.2 (e86c870879, 2021-01-15)"
   sodipodi:docname="fighting_types.svg">
  <defs
     id="defs2" />
  <sodipodi:namedview
     id="base"
     pagecolor="#ffffff"
     bordercolor="#666666"
     borderopacity="1.0"
     inkscape:pageopacity="0.0"
     inkscape:pageshadow="2"
     inkscape:zoom="0.3431542"
     inkscape:cx="400"
     inkscape:cy="560"
     inkscape:document-units="mm"
     inkscape:current-layer="layer1"
     inkscape:document-rotation="0"
     showgrid="false"
     showborder="false"
     inkscape:lockguides="true"
     inkscape:object-nodes="false"
     inkscape:window-width="1920"
     inkscape:window-height="983"
     inkscape:window-x="0"
     inkscape:window-y="0"
     inkscape:window-maximized="1">
    <inkscape:grid
       type="xygrid"
       id="grid833" />
  </sodipodi:namedview>
  <metadata
     id="metadata5">
    <rdf:RDF>
      <cc:Work
         rdf:about="">
        <dc:format>image/svg+xml</dc:format>
        <dc:type
           rdf:resource="http://purl.org/dc/dcmitype/StillImage" />
        <dc:title />
      </cc:Work>
    </rdf:RDF>
  </metadata>
  <g
     inkscape:label="Layer 1"
     inkscape:groupmode="layer"
     id="layer1">
    <g
       id="g913"
       style="stroke:#e0306a;stroke-opacity:1">
      <rect
         style="fill:#000000;fill-rule:evenodd;stroke:#e0306a;stroke-width:10.9224;stroke-linecap:round;stroke-miterlimit:4;stroke-dasharray:none;stroke-opacity:1"
         id="rect835"
         width="719.66669"
         height="116.41666"
         x="-211.66667"
         y="-10.583333"
         ry="58.208328" />
      <circle
         style="fill:#000000;fill-rule:evenodd;stroke:#e0306a;stroke-width:10;stroke-linecap:round;stroke-miterlimit:4;stroke-dasharray:none;stroke-opacity:1"
         id="path841"
         cx="-238.9413"
         cy="48.518757"
         r="97.372009" />
    </g>
    <g
       id="g1475"
       transform="matrix(0.6854532,0,0,0.6854532,-326.10038,-39.701948)">
      <circle
         class="st0"
         cx="127.6"
         cy="127.6"
         r="121.6"
         id="circle1455" />
      <g
         id="g1461">
        <path
           class="st1"
           d="m 139.536,184.222 c -19.152,0 -38.304,-0.046 -57.456,0.038 -3.814,0.017 -5.556,-1.013 -5.55,-5.472 0.046,-33.436 -0.026,-66.872 -0.061,-100.309 0,-0.479 -0.014,-0.959 0.012,-1.436 0.134,-2.483 1.426,-3.808 3.906,-3.895 1.833,-0.064 3.67,-0.019 5.506,-0.02 3.032,-0.001 6.071,0.127 9.096,-0.029 4.797,-0.248 5.731,1.749 5.68,5.556 -0.121,9.016 -0.039,18.034 -0.039,27.052 0,1.915 -0.027,3.831 0.012,5.745 0.066,3.224 1.174,4.325 4.326,4.368 0.638,0.009 1.278,0.024 1.915,-0.011 2.269,-0.124 3.499,-1.318 3.558,-3.633 0.071,-2.791 0.024,-5.586 0.025,-8.379 0.001,-8.219 0,-16.439 0.001,-24.658 0,-0.638 -0.013,-1.277 0.009,-1.915 0.099,-2.74 1.398,-4.031 4.199,-4.085 2.313,-0.045 4.628,-0.012 6.942,-0.012 2.873,0 5.746,-0.023 8.618,0.009 3.082,0.034 4.344,1.271 4.352,4.385 0.028,10.853 0.011,21.706 0.018,32.558 0.001,0.877 -0.035,1.765 0.09,2.628 0.27,1.876 1.474,2.962 3.387,3.087 1.033,0.067 2.077,0.069 3.11,0.002 2.019,-0.129 3.209,-1.277 3.435,-3.297 0.088,-0.79 0.061,-1.594 0.062,-2.391 0.003,-10.374 0.002,-20.748 0.003,-31.122 0,-0.638 -0.011,-1.277 0.006,-1.915 0.08,-2.999 1.392,-4.338 4.447,-4.364 5.027,-0.043 10.055,-0.047 15.082,0.002 3.028,0.03 4.345,1.38 4.352,4.437 0.025,10.933 0.009,21.865 0.014,32.798 0,0.877 -0.038,1.764 0.075,2.629 0.266,2.034 1.454,3.119 3.502,3.228 1.034,0.055 2.078,0.062 3.111,-0.008 1.896,-0.129 3.083,-1.236 3.338,-3.131 0.116,-0.864 0.083,-1.752 0.083,-2.629 0.005,-10.214 0.003,-20.429 0.004,-30.643 0,-0.718 -0.014,-1.437 0.01,-2.154 0.094,-2.82 1.305,-4.071 4.14,-4.093 5.266,-0.041 10.534,-0.044 15.8,0.002 2.78,0.024 4.063,1.349 4.184,4.119 0.021,0.478 0.008,0.957 0.008,1.436 -0.031,33.197 -0.063,66.394 -0.097,99.591 -0.001,0.798 0.033,1.602 -0.051,2.392 -0.227,2.139 -1.423,3.316 -3.552,3.506 -0.792,0.071 -1.595,0.031 -2.393,0.031 -19.075,0.002 -38.147,0.002 -57.219,0.002 z"
           id="path1457" />
        <path
           class="st1"
           d="m 68.526,145.065 c 0,11.082 0.001,22.164 -0.003,33.246 0,0.876 0.023,1.76 -0.075,2.628 -0.23,2.031 -1.329,3.134 -3.367,3.435 -0.549,0.081 -1.116,0.036 -1.669,0.097 -2.966,0.325 -4.786,-0.8 -6.159,-3.633 -3.755,-7.743 -7.837,-15.329 -11.835,-22.954 -0.722,-1.378 -1.142,-2.756 -1.134,-4.324 0.028,-5.66 0.014,-11.321 -0.033,-16.982 -0.013,-1.559 0.335,-2.97 1.054,-4.352 4.191,-8.063 8.38,-16.127 12.487,-24.232 0.871,-1.719 2.053,-2.54 3.95,-2.443 1.113,0.057 2.239,-0.044 3.344,0.068 2.095,0.212 3.298,1.468 3.504,3.571 0.07,0.711 0.037,1.434 0.037,2.151 0.002,11.242 0.001,22.483 0.001,33.725 -0.034,-0.001 -0.068,-0.001 -0.102,-0.001 z"
           id="path1459" />
      </g>
    </g>
  </g>
  <style
     type="text/css"
     id="style893">
	.st0{fill:#38BF4B;}
	.st1{fill:#FEFEFE;}
</style>
  <style
     type="text/css"
     id="style970">
	.st0{fill:#83C300;}
	.st1{fill:#FEFEFE;}
</style>
  <style
     type="text/css"
     id="style1065">
	.st0{fill:#5B5466;}
	.st1{fill-rule:evenodd;clip-rule:evenodd;fill:#FFFFFF;}
</style>
  <style
     type="text/css"
     id="style1155">
	.st0{fill:#006FC9;}
	.st1{fill:#FEFEFE;}
</style>
  <style
     type="text/css"
     id="style1277">
	.st0{fill:#FBD100;}
	.st1{fill-rule:evenodd;clip-rule:evenodd;fill:#FFFFFF;}
</style>
  <style
     type="text/css"
     id="style1363">
	.st0{fill:#FB89EB;}
	.st1{fill-rule:evenodd;clip-rule:evenodd;fill:#FFFFFF;}
</style>
  <style
     type="text/css"
     id="style1453">
	.st0{fill:#E0306A;}
	.st1{fill:#FEFEFE;}
</style>
</svg>
