<?xml version="1.0" encoding="UTF-8" standalone="no"?>
<svg
   xmlns:dc="http://purl.org/dc/elements/1.1/"
   xmlns:cc="http://creativecommons.org/ns#"
   xmlns:rdf="http://www.w3.org/1999/02/22-rdf-syntax-ns#"
   xmlns:svg="http://www.w3.org/2000/svg"
   xmlns="http://www.w3.org/2000/svg"
   xmlns:sodipodi="http://sodipodi.sourceforge.net/DTD/sodipodi-0.dtd"
   xmlns:inkscape="http://www.inkscape.org/namespaces/inkscape"
   width="210mm"
   height="297mm"
   viewBox="0 0 210 297"
   version="1.1"
   id="svg8"
   inkscape:version="1.0.2 (e86c870879, 2021-01-15)"
   sodipodi:docname="fire_types.svg">
  <defs
     id="defs2" />
  <sodipodi:namedview
     id="base"
     pagecolor="#ffffff"
     bordercolor="#666666"
     borderopacity="1.0"
     inkscape:pageopacity="0.0"
     inkscape:pageshadow="2"
     inkscape:zoom="0.3431542"
     inkscape:cx="400"
     inkscape:cy="560"
     inkscape:document-units="mm"
     inkscape:current-layer="layer1"
     inkscape:document-rotation="0"
     showgrid="false"
     showborder="false"
     inkscape:lockguides="true"
     inkscape:object-nodes="false"
     inkscape:window-width="1920"
     inkscape:window-height="983"
     inkscape:window-x="0"
     inkscape:window-y="0"
     inkscape:window-maximized="1">
    <inkscape:grid
       type="xygrid"
       id="grid833" />
  </sodipodi:namedview>
  <metadata
     id="metadata5">
    <rdf:RDF>
      <cc:Work
         rdf:about="">
        <dc:format>image/svg+xml</dc:format>
        <dc:type
           rdf:resource="http://purl.org/dc/dcmitype/StillImage" />
        <dc:title></dc:title>
      </cc:Work>
    </rdf:RDF>
  </metadata>
  <g
     inkscape:label="Layer 1"
     inkscape:groupmode="layer"
     id="layer1">
    <g
       id="g913"
       style="stroke:#ff9741;stroke-opacity:1">
      <rect
         style="fill:#000000;fill-rule:evenodd;stroke:#ff9741;stroke-width:10.9224;stroke-linecap:round;stroke-miterlimit:4;stroke-dasharray:none;stroke-opacity:1"
         id="rect835"
         width="719.66669"
         height="116.41666"
         x="-211.66667"
         y="-10.583333"
         ry="58.208328" />
      <circle
         style="fill:#000000;fill-rule:evenodd;stroke:#ff9741;stroke-width:10;stroke-linecap:round;stroke-miterlimit:4;stroke-dasharray:none;stroke-opacity:1"
         id="path841"
         cx="-238.9413"
         cy="48.518757"
         r="97.372009" />
    </g>
    <g
       id="g1561"
       transform="matrix(0.67502289,0,0,0.67502289,-324.56488,-37.898717)">
      <circle
         class="st0"
         cx="127.6"
         cy="127.6"
         r="121.6"
         id="circle1547" />
      <path
         class="st1"
         d="m 182.541,185.55 c -0.027,0.889 -0.626,1.494 -1.083,2.168 -7.367,10.861 -17.313,18.158 -30,21.634 -8.584,2.352 -17.308,3.991 -26.233,3.349 -22.541,-1.622 -41.215,-10.568 -54.166,-29.673 -6.34,-9.352 -9.461,-19.891 -10.291,-31.121 -1.129,-15.261 2.104,-29.771 7.626,-43.879 0.566,-1.445 1.16,-2.88 1.778,-4.303 0.162,-0.373 0.232,-1.018 0.842,-0.847 0.357,0.1 0.274,0.608 0.276,0.955 0.006,0.913 -0.013,1.827 -0.009,2.74 0.041,10.913 1.005,21.705 4.281,32.187 1.091,3.49 2.386,6.904 3.954,10.21 0.183,0.387 0.359,0.939 0.916,0.76 0.156,-0.05 0.221,-0.667 0.179,-1.006 -0.552,-4.539 -0.745,-9.103 -0.847,-13.666 -0.398,-17.762 4.124,-33.811 16.675,-46.962 3.465,-3.63 7.086,-7.109 11.187,-10.06 3.264,-2.349 6.335,-4.939 9.105,-7.877 5.249,-5.567 7.844,-12.214 8.191,-19.803 0.214,-4.686 -0.397,-9.293 -1.282,-13.876 -0.104,-0.537 -0.212,-1.074 -0.284,-1.616 -0.022,-0.165 0.056,-0.486 0.116,-0.493 0.238,-0.028 0.499,0.006 0.727,0.086 0.16,0.057 0.284,0.223 0.418,0.347 6.854,6.386 13.052,13.298 17.373,21.71 3.849,7.494 5.483,15.44 4.843,23.849 -0.204,2.682 -0.178,2.714 -2.845,3.513 -7.901,2.367 -13.454,10.11 -13.086,18.79 0.342,8.068 5.783,15.167 13.602,17.288 9.859,2.675 19.914,-3.363 22.593,-13.542 1.127,-4.279 0.716,-8.509 -0.294,-12.73 -0.574,-2.401 -1.354,-4.738 -2.211,-7.052 -0.177,-0.477 -0.693,-1.105 -0.146,-1.481 0.455,-0.313 1.001,0.241 1.458,0.513 10.659,6.331 19.124,14.776 23.86,26.344 8.27,20.198 6.118,39.435 -6.896,57 -8.472,11.434 -20.221,17.041 -34.563,16.855 -1.729,-0.022 -3.456,-0.281 -5.182,-0.451 -0.443,-0.044 -1.009,-0.018 -1.196,-0.501 -0.205,-0.533 0.343,-0.752 0.673,-1.024 0.564,-0.465 1.173,-0.877 1.71,-1.37 7.653,-7.025 10.557,-15.726 8.257,-25.79 -2.259,-9.884 -8.508,-16.425 -18.377,-19.111 -12.829,-3.492 -26.35,4.492 -30.061,17.685 -2.658,9.448 -0.476,17.976 5.724,25.365 7.584,9.039 17.473,13.844 29.208,14.934 11.363,1.056 22.162,-1.318 32.667,-5.364 3.657,-1.408 7.189,-3.141 10.778,-4.726 z"
         id="path1549" />
    </g>
  </g>
  <style
     type="text/css"
     id="style893">
	.st0{fill:#38BF4B;}
	.st1{fill:#FEFEFE;}
</style>
  <style
     type="text/css"
     id="style970">
	.st0{fill:#83C300;}
	.st1{fill:#FEFEFE;}
</style>
  <style
     type="text/css"
     id="style1065">
	.st0{fill:#5B5466;}
	.st1{fill-rule:evenodd;clip-rule:evenodd;fill:#FFFFFF;}
</style>
  <style
     type="text/css"
     id="style1155">
	.st0{fill:#006FC9;}
	.st1{fill:#FEFEFE;}
</style>
  <style
     type="text/css"
     id="style1277">
	.st0{fill:#FBD100;}
	.st1{fill-rule:evenodd;clip-rule:evenodd;fill:#FFFFFF;}
</style>
  <style
     type="text/css"
     id="style1363">
	.st0{fill:#FB89EB;}
	.st1{fill-rule:evenodd;clip-rule:evenodd;fill:#FFFFFF;}
</style>
  <style
     type="text/css"
     id="style1453">
	.st0{fill:#E0306A;}
	.st1{fill:#FEFEFE;}
</style>
  <style
     type="text/css"
     id="style1545">
	.st0{fill:#FF9741;}
	.st1{fill:#FEFEFE;}
</style>
</svg>
