<?xml version="1.0" encoding="UTF-8" standalone="no"?>
<svg
   xmlns:dc="http://purl.org/dc/elements/1.1/"
   xmlns:cc="http://creativecommons.org/ns#"
   xmlns:rdf="http://www.w3.org/1999/02/22-rdf-syntax-ns#"
   xmlns:svg="http://www.w3.org/2000/svg"
   xmlns="http://www.w3.org/2000/svg"
   xmlns:sodipodi="http://sodipodi.sourceforge.net/DTD/sodipodi-0.dtd"
   xmlns:inkscape="http://www.inkscape.org/namespaces/inkscape"
   width="210mm"
   height="297mm"
   viewBox="0 0 210 297"
   version="1.1"
   id="svg8"
   inkscape:version="1.0.2 (e86c870879, 2021-01-15)"
   sodipodi:docname="flying_types.svg">
  <defs
     id="defs2" />
  <sodipodi:namedview
     id="base"
     pagecolor="#ffffff"
     bordercolor="#666666"
     borderopacity="1.0"
     inkscape:pageopacity="0.0"
     inkscape:pageshadow="2"
     inkscape:zoom="0.3431542"
     inkscape:cx="400"
     inkscape:cy="560"
     inkscape:document-units="mm"
     inkscape:current-layer="layer1"
     inkscape:document-rotation="0"
     showgrid="false"
     showborder="false"
     inkscape:lockguides="true"
     inkscape:object-nodes="false"
     inkscape:window-width="1920"
     inkscape:window-height="983"
     inkscape:window-x="0"
     inkscape:window-y="0"
     inkscape:window-maximized="1">
    <inkscape:grid
       type="xygrid"
       id="grid833" />
  </sodipodi:namedview>
  <metadata
     id="metadata5">
    <rdf:RDF>
      <cc:Work
         rdf:about="">
        <dc:format>image/svg+xml</dc:format>
        <dc:type
           rdf:resource="http://purl.org/dc/dcmitype/StillImage" />
        <dc:title />
      </cc:Work>
    </rdf:RDF>
  </metadata>
  <g
     inkscape:label="Layer 1"
     inkscape:groupmode="layer"
     id="layer1">
    <g
       id="g913"
       style="stroke:#89aae3;stroke-opacity:1">
      <rect
         style="fill:#000000;fill-rule:evenodd;stroke:#89aae3;stroke-width:10.9224;stroke-linecap:round;stroke-miterlimit:4;stroke-dasharray:none;stroke-opacity:1"
         id="rect835"
         width="719.66669"
         height="116.41666"
         x="-211.66667"
         y="-10.583333"
         ry="58.208328" />
      <circle
         style="fill:#000000;fill-rule:evenodd;stroke:#89aae3;stroke-width:10;stroke-linecap:round;stroke-miterlimit:4;stroke-dasharray:none;stroke-opacity:1"
         id="path841"
         cx="-238.9413"
         cy="48.518757"
         r="97.372009" />
    </g>
    <g
       id="g1647"
       transform="matrix(0.67124649,0,0,0.67124649,-323.87483,-37.122323)">
      <circle
         class="st0"
         cx="127.6"
         cy="127.6"
         r="121.6"
         id="circle1633" />
      <path
         class="st1"
         d="m 188.976,121.561 c 0.055,0.914 -0.504,1.601 -0.881,2.351 -6.37,12.671 -22.688,23.722 -38.37,23.689 -3.318,-0.007 -6.632,-0.018 -9.945,-0.211 -0.315,-0.018 -0.861,0.075 -0.919,0.245 -0.176,0.521 0.333,0.714 0.713,0.829 3.663,1.109 7.371,2.03 11.161,2.603 5.521,0.835 11.021,0.732 16.49,-0.389 5.635,-1.155 10.445,-3.957 14.892,-7.499 0.667,-0.531 1.153,-1.437 2.205,-1.387 -0.38,0.752 -0.739,1.515 -1.143,2.253 -5.512,10.062 -14.349,15.076 -25.403,16.721 -3.036,0.452 -6.096,0.536 -9.159,0.567 -0.68,0.007 -1.361,0.013 -2.039,0.059 -0.224,0.015 -0.581,0.054 -0.495,0.411 0.05,0.207 0.245,0.452 0.438,0.538 0.541,0.241 1.11,0.426 1.678,0.6 1.219,0.372 2.451,0.701 3.665,1.086 1.299,0.412 1.364,0.496 0.777,1.799 -2.144,4.759 -4.916,9.13 -8.325,13.083 -8.768,10.168 -19.756,16.589 -32.979,18.847 -30.947,5.285 -59.016,-15.113 -64.592,-44.532 -5.64,-29.756 12.823,-57.988 42.269,-64.997 4.319,-1.028 8.709,-1.452 13.15,-1.44 8.674,0.024 17.354,0.191 26.023,-0.034 15.44,-0.401 30.653,-2.485 45.468,-7.02 4.399,-1.347 8.641,-3.088 12.656,-5.36 6.713,-3.798 12.076,-9.071 16.593,-15.246 1.906,-2.606 3.669,-5.318 5.506,-7.976 0.179,-0.259 0.343,-0.664 0.757,-0.509 0.388,0.145 0.297,0.559 0.286,0.874 -0.198,5.531 -0.712,11.04 -1.794,16.464 -2.112,10.592 -5.872,20.632 -11.377,29.895 -8.452,14.22 -20.786,23.595 -36.771,28.028 -4.114,1.141 -8.38,1.492 -12.617,1.693 -6.283,0.299 -12.584,0.383 -18.815,-0.815 -0.332,-0.064 -0.674,-0.087 -1.012,-0.109 -0.237,-0.015 -0.513,-0.002 -0.541,0.297 -0.012,0.126 0.139,0.317 0.267,0.394 0.288,0.173 0.604,0.302 0.915,0.433 9.856,4.15 20.045,6.476 30.811,5.545 6.809,-0.589 13.453,-1.936 19.803,-4.541 3.66,-1.502 6.968,-3.536 9.683,-6.462 0.28,-0.301 0.66,-0.509 0.993,-0.761 z"
         id="path1635" />
    </g>
  </g>
  <style
     type="text/css"
     id="style893">
	.st0{fill:#38BF4B;}
	.st1{fill:#FEFEFE;}
</style>
  <style
     type="text/css"
     id="style970">
	.st0{fill:#83C300;}
	.st1{fill:#FEFEFE;}
</style>
  <style
     type="text/css"
     id="style1065">
	.st0{fill:#5B5466;}
	.st1{fill-rule:evenodd;clip-rule:evenodd;fill:#FFFFFF;}
</style>
  <style
     type="text/css"
     id="style1155">
	.st0{fill:#006FC9;}
	.st1{fill:#FEFEFE;}
</style>
  <style
     type="text/css"
     id="style1277">
	.st0{fill:#FBD100;}
	.st1{fill-rule:evenodd;clip-rule:evenodd;fill:#FFFFFF;}
</style>
  <style
     type="text/css"
     id="style1363">
	.st0{fill:#FB89EB;}
	.st1{fill-rule:evenodd;clip-rule:evenodd;fill:#FFFFFF;}
</style>
  <style
     type="text/css"
     id="style1453">
	.st0{fill:#E0306A;}
	.st1{fill:#FEFEFE;}
</style>
  <style
     type="text/css"
     id="style1545">
	.st0{fill:#FF9741;}
	.st1{fill:#FEFEFE;}
</style>
  <style
     type="text/css"
     id="style1631">
	.st0{fill:#89AAE3;}
	.st1{fill:#FEFEFE;}
</style>
</svg>
