<?xml version="1.0" encoding="UTF-8" standalone="no"?>
<svg
   xmlns:dc="http://purl.org/dc/elements/1.1/"
   xmlns:cc="http://creativecommons.org/ns#"
   xmlns:rdf="http://www.w3.org/1999/02/22-rdf-syntax-ns#"
   xmlns:svg="http://www.w3.org/2000/svg"
   xmlns="http://www.w3.org/2000/svg"
   xmlns:sodipodi="http://sodipodi.sourceforge.net/DTD/sodipodi-0.dtd"
   xmlns:inkscape="http://www.inkscape.org/namespaces/inkscape"
   width="210mm"
   height="297mm"
   viewBox="0 0 210 297"
   version="1.1"
   id="svg8"
   inkscape:version="1.0.2 (e86c870879, 2021-01-15)"
   sodipodi:docname="ghost_types.svg">
  <defs
     id="defs2" />
  <sodipodi:namedview
     id="base"
     pagecolor="#ffffff"
     bordercolor="#666666"
     borderopacity="1.0"
     inkscape:pageopacity="0.0"
     inkscape:pageshadow="2"
     inkscape:zoom="0.3431542"
     inkscape:cx="400"
     inkscape:cy="560"
     inkscape:document-units="mm"
     inkscape:current-layer="layer1"
     inkscape:document-rotation="0"
     showgrid="false"
     showborder="false"
     inkscape:lockguides="true"
     inkscape:object-nodes="false"
     inkscape:window-width="1920"
     inkscape:window-height="983"
     inkscape:window-x="0"
     inkscape:window-y="0"
     inkscape:window-maximized="1">
    <inkscape:grid
       type="xygrid"
       id="grid833" />
  </sodipodi:namedview>
  <metadata
     id="metadata5">
    <rdf:RDF>
      <cc:Work
         rdf:about="">
        <dc:format>image/svg+xml</dc:format>
        <dc:type
           rdf:resource="http://purl.org/dc/dcmitype/StillImage" />
        <dc:title />
      </cc:Work>
    </rdf:RDF>
  </metadata>
  <g
     inkscape:label="Layer 1"
     inkscape:groupmode="layer"
     id="layer1">
    <g
       id="g913"
       style="stroke:#4c6ab2;stroke-opacity:1">
      <rect
         style="fill:#000000;fill-rule:evenodd;stroke:#4c6ab2;stroke-width:10.9224;stroke-linecap:round;stroke-miterlimit:4;stroke-dasharray:none;stroke-opacity:1"
         id="rect835"
         width="719.66669"
         height="116.41666"
         x="-211.66667"
         y="-10.583333"
         ry="58.208328" />
      <circle
         style="fill:#000000;fill-rule:evenodd;stroke:#4c6ab2;stroke-width:10;stroke-linecap:round;stroke-miterlimit:4;stroke-dasharray:none;stroke-opacity:1"
         id="path841"
         cx="-238.9413"
         cy="48.518757"
         r="97.372009" />
    </g>
    <g
       id="g1733"
       transform="matrix(0.678727,0,0,0.678727,-324.85154,-38.801802)">
      <circle
         class="st0"
         cx="127.6"
         cy="127.6"
         r="121.6"
         id="circle1719" />
      <path
         class="st1"
         d="m 192.672,195.691 c -0.884,-0.486 -1.76,-0.986 -2.637,-1.486 -0.355,-0.202 -0.714,-0.397 -1.067,-0.601 -2.418,-1.402 -4.436,-3.276 -6.186,-5.429 -2.424,-2.981 -2.838,-6.226 -1.106,-9.702 0.502,-1.006 1.311,-1.764 2.028,-2.6 18.7,-21.802 24.477,-46.608 16.032,-74.078 -10.625,-34.564 -45.062,-57.747 -83.317,-53.41 -16.442,1.864 -31.111,8.214 -43.22,19.526 -21.67,20.244 -29.571,45.085 -23.605,74.227 7.359,27.95 24.376,44.864 51.098,55.839 7.386,2.534 16.151,4.589 23.847,5.834 5.876,0.95 11.09,1.2 17.014,1.242 2.957,0.021 6.087,-0.008 9.57,-0.03 6.349,0.065 8.834,-0.195 13.22,-0.594 9.575,-0.872 18.676,-3.627 27.469,-7.452 0.289,-0.126 0.575,-0.258 0.863,-0.384 0.699,-0.305 0.577,-0.583 -0.003,-0.902 z m -77.538,-78.43 c -1.355,8.629 -8.526,14.785 -17.255,14.761 -7.361,-0.02 -13.807,-4.569 -16.28,-11.488 -2.458,-6.879 -0.337,-14.596 5.291,-19.228 0.425,-0.35 0.861,-0.694 1.326,-0.985 0.995,-0.623 1.18,-0.556 1.316,0.604 0.278,2.37 0.875,4.637 1.991,6.754 4.1,7.776 13.352,11.245 21.638,7.94 2.502,-0.998 2.286,-0.354 1.973,1.642 z m 20.871,0.779 c -0.106,-0.539 -0.193,-1.087 -0.225,-1.635 -0.083,-1.403 0.093,-1.563 1.401,-1.004 3.839,1.641 7.769,1.918 11.773,0.81 6.683,-1.849 11.603,-7.687 12.406,-14.584 0.066,-0.568 -0.266,-1.418 0.528,-1.626 0.629,-0.165 1.128,0.457 1.625,0.825 5.866,4.345 8.344,12.202 6.066,19.195 -2.368,7.266 -8.948,12.02 -16.612,12.001 -8.312,-0.021 -15.362,-5.829 -16.962,-13.982 z"
         id="path1721" />
    </g>
  </g>
  <style
     type="text/css"
     id="style893">
	.st0{fill:#38BF4B;}
	.st1{fill:#FEFEFE;}
</style>
  <style
     type="text/css"
     id="style970">
	.st0{fill:#83C300;}
	.st1{fill:#FEFEFE;}
</style>
  <style
     type="text/css"
     id="style1065">
	.st0{fill:#5B5466;}
	.st1{fill-rule:evenodd;clip-rule:evenodd;fill:#FFFFFF;}
</style>
  <style
     type="text/css"
     id="style1155">
	.st0{fill:#006FC9;}
	.st1{fill:#FEFEFE;}
</style>
  <style
     type="text/css"
     id="style1277">
	.st0{fill:#FBD100;}
	.st1{fill-rule:evenodd;clip-rule:evenodd;fill:#FFFFFF;}
</style>
  <style
     type="text/css"
     id="style1363">
	.st0{fill:#FB89EB;}
	.st1{fill-rule:evenodd;clip-rule:evenodd;fill:#FFFFFF;}
</style>
  <style
     type="text/css"
     id="style1453">
	.st0{fill:#E0306A;}
	.st1{fill:#FEFEFE;}
</style>
  <style
     type="text/css"
     id="style1545">
	.st0{fill:#FF9741;}
	.st1{fill:#FEFEFE;}
</style>
  <style
     type="text/css"
     id="style1631">
	.st0{fill:#89AAE3;}
	.st1{fill:#FEFEFE;}
</style>
  <style
     type="text/css"
     id="style1717">
	.st0{fill:#4C6AB2;}
	.st1{fill:#FEFEFE;}
</style>
</svg>
