<?xml version="1.0" encoding="UTF-8" standalone="no"?>
<svg
   xmlns:dc="http://purl.org/dc/elements/1.1/"
   xmlns:cc="http://creativecommons.org/ns#"
   xmlns:rdf="http://www.w3.org/1999/02/22-rdf-syntax-ns#"
   xmlns:svg="http://www.w3.org/2000/svg"
   xmlns="http://www.w3.org/2000/svg"
   xmlns:sodipodi="http://sodipodi.sourceforge.net/DTD/sodipodi-0.dtd"
   xmlns:inkscape="http://www.inkscape.org/namespaces/inkscape"
   width="210mm"
   height="297mm"
   viewBox="0 0 210 297"
   version="1.1"
   id="svg8"
   inkscape:version="1.0.2 (e86c870879, 2021-01-15)"
   sodipodi:docname="poison_types.svg">
  <defs
     id="defs2" />
  <sodipodi:namedview
     id="base"
     pagecolor="#ffffff"
     bordercolor="#666666"
     borderopacity="1.0"
     inkscape:pageopacity="0.0"
     inkscape:pageshadow="2"
     inkscape:zoom="0.3431542"
     inkscape:cx="400"
     inkscape:cy="560"
     inkscape:document-units="mm"
     inkscape:current-layer="layer1"
     inkscape:document-rotation="0"
     showgrid="false"
     showborder="false"
     inkscape:lockguides="true"
     inkscape:object-nodes="false"
     inkscape:window-width="1920"
     inkscape:window-height="983"
     inkscape:window-x="0"
     inkscape:window-y="0"
     inkscape:window-maximized="1">
    <inkscape:grid
       type="xygrid"
       id="grid833" />
  </sodipodi:namedview>
  <metadata
     id="metadata5">
    <rdf:RDF>
      <cc:Work
         rdf:about="">
        <dc:format>image/svg+xml</dc:format>
        <dc:type
           rdf:resource="http://purl.org/dc/dcmitype/StillImage" />
        <dc:title />
      </cc:Work>
    </rdf:RDF>
  </metadata>
  <g
     inkscape:label="Layer 1"
     inkscape:groupmode="layer"
     id="layer1">
    <g
       id="g913"
       style="stroke:#b567ce;stroke-opacity:1">
      <rect
         style="fill:#000000;fill-rule:evenodd;stroke:#b567ce;stroke-width:10.9224;stroke-linecap:round;stroke-miterlimit:4;stroke-dasharray:none;stroke-opacity:1"
         id="rect835"
         width="719.66669"
         height="116.41666"
         x="-211.66667"
         y="-10.583333"
         ry="58.208328" />
      <circle
         style="fill:#000000;fill-rule:evenodd;stroke:#b567ce;stroke-width:10;stroke-linecap:round;stroke-miterlimit:4;stroke-dasharray:none;stroke-opacity:1"
         id="path841"
         cx="-238.9413"
         cy="48.518757"
         r="97.372009" />
    </g>
    <g
       id="g2112"
       transform="matrix(0.67006551,0,0,0.67006551,-323.50352,-37.007699)">
      <circle
         class="st0"
         cx="127.6"
         cy="127.6"
         r="121.6"
         id="circle2098" />
      <path
         class="st1"
         d="m 128.427,48.754 c 19.618,0.311 38.458,5.782 54.862,18.477 10.72,8.297 18.841,18.639 23.114,31.606 6.464,19.618 3.226,37.867 -8.529,54.693 -3.865,5.532 -8.551,10.334 -13.873,14.472 -1.559,1.212 -1.905,2.331 -1.391,4.266 1.96,7.365 1.446,14.622 -1.629,21.633 -1.678,3.826 -4.063,7.126 -7.523,9.564 -5.646,3.979 -12.45,3.981 -18.075,-0.019 -3.966,-2.821 -6.451,-6.739 -8.215,-11.188 -0.299,-0.754 -0.319,-2.101 -1.053,-2.096 -1.025,0.007 -0.869,1.401 -1.182,2.186 -1.59,3.986 -3.922,7.39 -7.433,9.921 -6.592,4.752 -15.276,4.259 -21.313,-1.189 -2.797,-2.524 -4.812,-5.562 -6.094,-9.097 -0.199,-0.55 -0.375,-1.112 -0.625,-1.639 -0.186,-0.393 -0.533,-0.429 -0.727,-0.017 -0.319,0.68 -0.569,1.392 -0.834,2.096 -1.321,3.501 -3.254,6.602 -5.955,9.213 -6.663,6.439 -15.861,6.422 -22.499,-0.082 -4.838,-4.741 -7.14,-10.678 -7.784,-17.284 -0.417,-4.272 -0.286,-8.565 1.061,-12.696 0.477,-1.465 0.067,-2.282 -1.084,-3.171 -7.037,-5.439 -12.9,-11.95 -17.46,-19.599 -6.079,-10.195 -9.1,-21.24 -8.608,-33.105 0.598,-14.431 5.961,-27.051 15.311,-37.977 10.974,-12.824 24.943,-20.893 41.051,-25.457 8.352,-2.37 16.902,-3.396 26.487,-3.511 z m -0.914,106.744 c 6.418,0.027 12.708,-0.843 18.842,-2.734 8.822,-2.719 16.62,-7.116 22.798,-14.109 10.484,-11.866 10.84,-27.416 0.905,-39.747 -3.192,-3.962 -7.067,-7.145 -11.428,-9.737 -7.928,-4.712 -16.535,-7.192 -25.708,-7.937 -11.636,-0.946 -22.735,0.933 -33.181,6.176 -7.652,3.841 -14.052,9.155 -18.169,16.821 -4.725,8.797 -4.976,17.777 -0.631,26.797 3.504,7.274 9.146,12.548 16.023,16.562 9.429,5.504 19.695,7.864 30.549,7.908 z"
         id="path2100" />
    </g>
  </g>
  <style
     type="text/css"
     id="style893">
	.st0{fill:#38BF4B;}
	.st1{fill:#FEFEFE;}
</style>
  <style
     type="text/css"
     id="style970">
	.st0{fill:#83C300;}
	.st1{fill:#FEFEFE;}
</style>
  <style
     type="text/css"
     id="style1065">
	.st0{fill:#5B5466;}
	.st1{fill-rule:evenodd;clip-rule:evenodd;fill:#FFFFFF;}
</style>
  <style
     type="text/css"
     id="style1155">
	.st0{fill:#006FC9;}
	.st1{fill:#FEFEFE;}
</style>
  <style
     type="text/css"
     id="style1277">
	.st0{fill:#FBD100;}
	.st1{fill-rule:evenodd;clip-rule:evenodd;fill:#FFFFFF;}
</style>
  <style
     type="text/css"
     id="style1363">
	.st0{fill:#FB89EB;}
	.st1{fill-rule:evenodd;clip-rule:evenodd;fill:#FFFFFF;}
</style>
  <style
     type="text/css"
     id="style1453">
	.st0{fill:#E0306A;}
	.st1{fill:#FEFEFE;}
</style>
  <style
     type="text/css"
     id="style1545">
	.st0{fill:#FF9741;}
	.st1{fill:#FEFEFE;}
</style>
  <style
     type="text/css"
     id="style1631">
	.st0{fill:#89AAE3;}
	.st1{fill:#FEFEFE;}
</style>
  <style
     type="text/css"
     id="style1717">
	.st0{fill:#4C6AB2;}
	.st1{fill:#FEFEFE;}
</style>
  <style
     type="text/css"
     id="style1803">
	.st0{fill:#E87236;}
	.st1{fill-rule:evenodd;clip-rule:evenodd;fill:#FFFFFF;}
</style>
  <style
     type="text/css"
     id="style1903">
	.st0{fill:#4CD1C0;}
	.st1{fill:#FFFFFF;}
</style>
  <style
     type="text/css"
     id="style2010">
	.st0{fill:#919AA2;}
	.st1{fill-rule:evenodd;clip-rule:evenodd;fill:#FFFFFF;}
</style>
  <style
     type="text/css"
     id="style2096">
	.st0{fill:#B567CE;}
	.st1{fill:#FEFEFE;}
</style>
</svg>
