<?xml version="1.0" encoding="UTF-8" standalone="no"?>
<svg
   xmlns:dc="http://purl.org/dc/elements/1.1/"
   xmlns:cc="http://creativecommons.org/ns#"
   xmlns:rdf="http://www.w3.org/1999/02/22-rdf-syntax-ns#"
   xmlns:svg="http://www.w3.org/2000/svg"
   xmlns="http://www.w3.org/2000/svg"
   xmlns:sodipodi="http://sodipodi.sourceforge.net/DTD/sodipodi-0.dtd"
   xmlns:inkscape="http://www.inkscape.org/namespaces/inkscape"
   width="210mm"
   height="297mm"
   viewBox="0 0 210 297"
   version="1.1"
   id="svg8"
   inkscape:version="1.0.2 (e86c870879, 2021-01-15)"
   sodipodi:docname="water_types.svg">
  <defs
     id="defs2" />
  <sodipodi:namedview
     id="base"
     pagecolor="#ffffff"
     bordercolor="#666666"
     borderopacity="1.0"
     inkscape:pageopacity="0.0"
     inkscape:pageshadow="2"
     inkscape:zoom="0.3465602"
     inkscape:cx="400"
     inkscape:cy="560"
     inkscape:document-units="mm"
     inkscape:current-layer="layer1"
     inkscape:document-rotation="0"
     showgrid="false"
     showborder="false"
     inkscape:lockguides="true"
     inkscape:object-nodes="false"
     inkscape:window-width="1920"
     inkscape:window-height="983"
     inkscape:window-x="0"
     inkscape:window-y="0"
     inkscape:window-maximized="1">
    <inkscape:grid
       type="xygrid"
       id="grid833" />
  </sodipodi:namedview>
  <metadata
     id="metadata5">
    <rdf:RDF>
      <cc:Work
         rdf:about="">
        <dc:format>image/svg+xml</dc:format>
        <dc:type
           rdf:resource="http://purl.org/dc/dcmitype/StillImage" />
        <dc:title></dc:title>
      </cc:Work>
    </rdf:RDF>
  </metadata>
  <g
     inkscape:label="Layer 1"
     inkscape:groupmode="layer"
     id="layer1">
    <g
       id="g913"
       style="stroke:#3692dc;stroke-opacity:1">
      <rect
         style="fill:#000000;fill-rule:evenodd;stroke:#3692dc;stroke-width:10.9224;stroke-linecap:round;stroke-miterlimit:4;stroke-dasharray:none;stroke-opacity:1"
         id="rect835"
         width="719.66669"
         height="116.41666"
         x="-211.66667"
         y="-10.583333"
         ry="58.208328" />
      <circle
         style="fill:#000000;fill-rule:evenodd;stroke:#3692dc;stroke-width:10;stroke-linecap:round;stroke-miterlimit:4;stroke-dasharray:none;stroke-opacity:1"
         id="path841"
         cx="-238.9413"
         cy="48.518757"
         r="97.372009" />
    </g>
    <g
       id="g2456"
       transform="matrix(0.67047325,0,0,0.67047325,-324.0279,-36.867175)">
      <circle
         class="st0"
         cx="127.6"
         cy="127.6"
         r="121.6"
         id="circle2442" />
      <path
         class="st1"
         d="M 128.132,210.828 C 98.898,210.492 76.359,190.745 70.75,165.026 c -2.536,-11.629 -1.433,-22.994 2.814,-34.14 6.502,-17.063 15.073,-33.053 24.77,-48.465 8.48,-13.477 17.111,-26.859 25.668,-40.288 0.985,-1.546 1.928,-3.12 2.881,-4.687 0.495,-0.814 0.972,-0.806 1.462,-0.004 0.13,0.213 0.263,0.426 0.392,0.639 9.16,15.119 19.139,29.719 28.432,44.753 8.427,13.632 16.251,27.579 22.25,42.482 2.367,5.879 4.758,11.744 5.672,18.084 2.522,17.479 -1.681,33.148 -13.029,46.669 -10.544,12.562 -24.218,19.28 -40.574,20.527 -1.329,0.101 -2.659,0.184 -3.356,0.232 z m -3.735,-18.348 c 5.986,0.029 11.643,-1.252 16.792,-4.257 10.073,-5.879 15.859,-14.502 16.343,-26.356 0.036,-0.879 0.383,-2.379 -0.304,-2.528 -1.104,-0.239 -1.179,1.296 -1.634,2.081 -5.802,10.021 -14.473,15.595 -26.016,16.052 -17.954,0.71 -32.125,-13.959 -31.725,-31.098 0.016,-0.667 0.05,-1.334 0.036,-1.999 -0.005,-0.221 -0.072,-0.542 -0.224,-0.638 -0.378,-0.239 -0.59,0.122 -0.785,0.372 -0.256,0.328 -0.498,0.67 -0.712,1.027 -6.071,10.144 -6.639,20.562 -0.74,30.853 6.345,11.071 16.396,16.129 28.969,16.491 z"
         id="path2444" />
    </g>
  </g>
  <style
     type="text/css"
     id="style893">
	.st0{fill:#38BF4B;}
	.st1{fill:#FEFEFE;}
</style>
  <style
     type="text/css"
     id="style970">
	.st0{fill:#83C300;}
	.st1{fill:#FEFEFE;}
</style>
  <style
     type="text/css"
     id="style1065">
	.st0{fill:#5B5466;}
	.st1{fill-rule:evenodd;clip-rule:evenodd;fill:#FFFFFF;}
</style>
  <style
     type="text/css"
     id="style1155">
	.st0{fill:#006FC9;}
	.st1{fill:#FEFEFE;}
</style>
  <style
     type="text/css"
     id="style1277">
	.st0{fill:#FBD100;}
	.st1{fill-rule:evenodd;clip-rule:evenodd;fill:#FFFFFF;}
</style>
  <style
     type="text/css"
     id="style1363">
	.st0{fill:#FB89EB;}
	.st1{fill-rule:evenodd;clip-rule:evenodd;fill:#FFFFFF;}
</style>
  <style
     type="text/css"
     id="style1453">
	.st0{fill:#E0306A;}
	.st1{fill:#FEFEFE;}
</style>
  <style
     type="text/css"
     id="style1545">
	.st0{fill:#FF9741;}
	.st1{fill:#FEFEFE;}
</style>
  <style
     type="text/css"
     id="style1631">
	.st0{fill:#89AAE3;}
	.st1{fill:#FEFEFE;}
</style>
  <style
     type="text/css"
     id="style1717">
	.st0{fill:#4C6AB2;}
	.st1{fill:#FEFEFE;}
</style>
  <style
     type="text/css"
     id="style1803">
	.st0{fill:#E87236;}
	.st1{fill-rule:evenodd;clip-rule:evenodd;fill:#FFFFFF;}
</style>
  <style
     type="text/css"
     id="style1903">
	.st0{fill:#4CD1C0;}
	.st1{fill:#FFFFFF;}
</style>
  <style
     type="text/css"
     id="style2010">
	.st0{fill:#919AA2;}
	.st1{fill-rule:evenodd;clip-rule:evenodd;fill:#FFFFFF;}
</style>
  <style
     type="text/css"
     id="style2096">
	.st0{fill:#B567CE;}
	.st1{fill:#FEFEFE;}
</style>
  <style
     type="text/css"
     id="style2182">
	.st0{fill:#FF6675;}
	.st1{fill:#FEFEFE;}
</style>
  <style
     type="text/css"
     id="style2268">
	.st0{fill:#C8B686;}
	.st1{fill-rule:evenodd;clip-rule:evenodd;fill:#FFFFFF;}
</style>
  <style
     type="text/css"
     id="style2354">
	.st0{fill:#5A8EA2;}
	.st1{fill-rule:evenodd;clip-rule:evenodd;fill:#FFFFFF;}
</style>
  <style
     type="text/css"
     id="style2440">
	.st0{fill:#3692DC;}
	.st1{fill:#FEFEFE;}
</style>
</svg>
